<svg xmlns="http://www.w3.org/2000/svg" viewBox="0 0 1024 1024" role="img" aria-labelledby="title desc">
  <title id="title">DersRotasi app icon</title>
  <desc id="desc">A route path forming a study progress mark on a soft pastel system background.</desc>
  <defs>
    <linearGradient id="background" x1="184" y1="120" x2="840" y2="904" gradientUnits="userSpaceOnUse">
      <stop offset="0" stop-color="#a9cbff"/>
      <stop offset="0.56" stop-color="#8fbaff"/>
      <stop offset="1" stop-color="#b8a3ff"/>
    </linearGradient>
    <filter id="softShadow" x="-20%" y="-20%" width="140%" height="140%">
      <feDropShadow dx="0" dy="20" stdDeviation="28" flood-color="#566891" flood-opacity="0.18"/>
    </filter>
  </defs>
  <rect width="1024" height="1024" rx="224" fill="url(#background)"/>
  <path d="M281 687c0-126 92-221 220-221h42c78 0 139-57 139-130 0-66-51-118-119-118-71 0-123 50-123 118" fill="none" stroke="#ffffff" stroke-width="74" stroke-linecap="round" stroke-linejoin="round" filter="url(#softShadow)"/>
  <circle cx="280" cy="687" r="74" fill="#ffffff" filter="url(#softShadow)"/>
  <circle cx="280" cy="687" r="28" fill="#6fa8ff"/>
  <circle cx="441" cy="336" r="74" fill="#ffffff" filter="url(#softShadow)"/>
  <circle cx="441" cy="336" r="28" fill="#6fa8ff"/>
  <path d="M681 601h-142c-31 0-57 25-57 57v54c0 31 26 57 57 57h142c31 0 57-26 57-57v-54c0-32-26-57-57-57Z" fill="#ffffff" filter="url(#softShadow)"/>
  <path d="M536 652h150M536 711h102" stroke="#6fa8ff" stroke-width="24" stroke-linecap="round"/>
</svg>
